<svg width="439" height="176" viewBox="0 0 439 176" fill="none" xmlns="http://www.w3.org/2000/svg">
<path d="M209.777 60.4855C232.139 52.4919 288.825 41.301 336.67 60.4855L357.738 47.6699V72.7185L336.67 60.4855C310.359 66.7638 248.146 75.5534 209.777 60.4855Z" fill="#1B5F6A"/>
<path d="M245.796 12.8155C268.159 4.82201 324.845 -6.36893 372.689 12.8155L393.757 0V25.0485L372.689 12.8155C346.379 19.0939 284.165 27.8835 245.796 12.8155Z" fill="#1B5F6A"/>
<path d="M286.767 104.159C300.472 99.2637 335.213 92.4103 364.535 104.159L377.447 96.3107V111.65L364.535 104.159C348.41 108.004 310.282 113.387 286.767 104.159Z" fill="#1B5F6A"/>
<path d="M348.32 41.8289C362.025 36.9336 396.766 30.0802 426.088 41.8289L439 33.9806V49.3204L426.088 41.8289C409.963 45.6737 371.835 51.0565 348.32 41.8289Z" fill="#1B5F6A"/>
<path d="M252.981 84.606C263.78 80.7641 291.156 75.3856 314.262 84.606L324.437 78.4466V90.4854L314.262 84.606C301.556 87.6235 271.51 91.848 252.981 84.606Z" fill="#1B5F6A"/>
<path d="M204.631 75.6966C209.62 73.8996 222.267 71.3838 232.941 75.6966L237.641 72.8156V78.4466L232.941 75.6966C227.071 77.108 213.191 79.0839 204.631 75.6966Z" fill="#1B5F6A"/>
<path d="M212.786 84.4344C217.775 82.6374 230.422 80.1216 241.096 84.4344L245.796 81.5534V87.1845L241.096 84.4344C235.226 85.8458 221.346 87.8218 212.786 84.4344Z" fill="#1B5F6A"/>
<path d="M299.194 39.9684C304.183 38.1714 316.83 35.6556 327.504 39.9684L332.204 37.0874V42.7185L327.504 39.9684C321.634 41.3798 307.754 43.3558 299.194 39.9684Z" fill="#1B5F6A"/>
<path d="M336.087 81.716C341.076 79.919 353.723 77.4032 364.397 81.716L369.097 78.835V84.466L364.397 81.716C358.527 83.1274 344.647 85.1033 336.087 81.716Z" fill="#1B5F6A"/>
<path d="M179 98.135C192.412 93.3637 226.408 86.6838 255.103 98.135L267.738 90.4854V105.437L255.103 98.135C239.323 101.883 202.011 107.129 179 98.135Z" fill="#1B5F6A"/>
<path d="M226.767 34.1206C237.567 30.2787 264.943 24.9001 288.049 34.1206L298.223 27.9612V40L288.049 34.1206C275.342 37.1381 245.297 41.3626 226.767 34.1206Z" fill="#1B5F6A"/>
<path d="M154.777 124.485C177.139 116.492 233.825 105.301 281.67 124.485L302.738 111.67V136.718L281.67 124.485C255.359 130.764 193.146 139.553 154.777 124.485Z" fill="#1B5F6A"/>
<path d="M231.767 168.159C245.472 163.264 280.213 156.41 309.535 168.159L322.447 160.311V175.651L309.535 168.159C293.41 172.004 255.282 177.387 231.767 168.159Z" fill="#1B5F6A"/>
<path d="M197.981 148.606C208.78 144.764 236.156 139.386 259.262 148.606L269.437 142.447V154.485L259.262 148.606C246.556 151.623 216.51 155.848 197.981 148.606Z" fill="#1B5F6A"/>
<path d="M149.631 139.697C154.62 137.9 167.267 135.384 177.941 139.697L182.641 136.816V142.447L177.941 139.697C172.071 141.108 158.191 143.084 149.631 139.697Z" fill="#1B5F6A"/>
<path d="M157.786 148.434C162.775 146.637 175.422 144.122 186.096 148.434L190.796 145.553V151.184L186.096 148.434C180.226 149.846 166.346 151.822 157.786 148.434Z" fill="#1B5F6A"/>
<path d="M244.194 103.968C249.183 102.171 261.83 99.6556 272.504 103.968L277.204 101.087V106.718L272.504 103.968C266.634 105.38 252.754 107.356 244.194 103.968Z" fill="#1B5F6A"/>
<path d="M281.087 145.716C286.076 143.919 298.723 141.403 309.397 145.716L314.097 142.835V148.466L309.397 145.716C303.527 147.127 289.647 149.103 281.087 145.716Z" fill="#1B5F6A"/>
<path d="M124 162.135C137.412 157.364 171.408 150.684 200.103 162.135L212.738 154.485V169.437L200.103 162.135C184.323 165.883 147.011 171.129 124 162.135Z" fill="#1B5F6A"/>
<path d="M30.7767 33.3981C53.1392 25.4045 109.825 14.2136 157.67 33.3981L178.738 20.5825V45.6311L157.67 33.3981C131.359 39.6764 69.1457 48.466 30.7767 33.3981Z" fill="#1B5F6A"/>
<path d="M107.767 77.0716C121.472 72.1763 156.213 65.323 185.535 77.0716L198.447 69.2233V84.5631L185.535 77.0716C169.41 80.9165 131.282 86.2993 107.767 77.0716Z" fill="#1B5F6A"/>
<path d="M73.9806 57.5186C84.7803 53.6767 112.156 48.2982 135.262 57.5186L145.437 51.3592V63.398L135.262 57.5186C122.556 60.5361 92.5105 64.7606 73.9806 57.5186Z" fill="#1B5F6A"/>
<path d="M25.631 48.6092C30.62 46.8122 43.2665 44.2964 53.9405 48.6092L58.6408 45.7281V51.3592L53.9405 48.6092C48.0707 50.0206 34.191 51.9965 25.631 48.6092Z" fill="#1B5F6A"/>
<path d="M33.7864 57.347C38.7754 55.55 51.4219 53.0342 62.0959 57.347L66.7961 54.466V60.0971L62.0959 57.347C56.2261 58.7584 42.3464 60.7344 33.7864 57.347Z" fill="#1B5F6A"/>
<path d="M120.194 12.881C125.183 11.084 137.83 8.56822 148.504 12.881L153.204 10V15.6311L148.504 12.881C142.634 14.2924 128.754 16.2684 120.194 12.881Z" fill="#1B5F6A"/>
<path d="M157.087 54.6286C162.076 52.8316 174.723 50.3158 185.397 54.6286L190.097 51.7476V57.3786L185.397 54.6286C179.527 56.04 165.647 58.0159 157.087 54.6286Z" fill="#1B5F6A"/>
<path d="M0 71.0476C13.4116 66.2763 47.4084 59.5964 76.1026 71.0476L88.7379 63.398V78.3495L76.1026 71.0476C60.3231 74.7951 23.0113 80.0416 0 71.0476Z" fill="#1B5F6A"/>
</svg>
