<svg width="517" height="355" viewBox="0 0 517 355" fill="none" xmlns="http://www.w3.org/2000/svg">
<path d="M406.777 181.485C429.139 173.492 485.825 162.301 533.67 181.485L554.738 168.67V193.718L533.67 181.485C507.359 187.764 445.146 196.553 406.777 181.485Z" fill="#2EA5B8"/>
<path d="M442.796 133.816C465.159 125.822 521.845 114.631 569.689 133.816L590.757 121V146.049L569.689 133.816C543.379 140.094 481.165 148.883 442.796 133.816Z" fill="#2EA5B8"/>
<path d="M483.767 225.159C497.472 220.264 532.213 213.41 561.535 225.159L574.447 217.311V232.651L561.535 225.159C545.41 229.004 507.282 234.387 483.767 225.159Z" fill="#2EA5B8"/>
<path d="M449.98 205.606C460.78 201.764 488.156 196.386 511.262 205.606L521.437 199.447V211.485L511.262 205.606C498.556 208.623 468.51 212.848 449.98 205.606Z" fill="#2EA5B8"/>
<path d="M381 166.159C391.8 162.318 419.176 156.939 442.282 166.159L452.456 160V172.039L442.282 166.159C429.575 169.177 399.53 173.401 381 166.159Z" fill="#2EA5B8"/>
<path d="M401.631 196.697C406.62 194.9 419.267 192.384 429.941 196.697L434.641 193.816V199.447L429.941 196.697C424.071 198.108 410.191 200.084 401.631 196.697Z" fill="#2EA5B8"/>
<path d="M409.786 205.434C414.775 203.637 427.422 201.122 438.096 205.434L442.796 202.553V208.184L438.096 205.434C432.226 206.846 418.346 208.822 409.786 205.434Z" fill="#2EA5B8"/>
<path d="M496.194 160.968C501.183 159.171 513.83 156.656 524.504 160.968L529.204 158.087V163.718L524.504 160.968C518.634 162.38 504.754 164.356 496.194 160.968Z" fill="#2EA5B8"/>
<path d="M394 141.881C398.989 140.084 411.636 137.568 422.31 141.881L427.01 139V144.631L422.31 141.881C416.44 143.292 402.56 145.268 394 141.881Z" fill="#2EA5B8"/>
<path d="M376 219.135C389.412 214.364 423.408 207.684 452.103 219.135L464.738 211.485V226.437L452.103 219.135C436.323 222.883 399.011 228.129 376 219.135Z" fill="#2EA5B8"/>
<path d="M423.767 155.121C434.567 151.279 461.943 145.9 485.049 155.121L495.223 148.961V161L485.049 155.121C472.342 158.138 442.297 162.363 423.767 155.121Z" fill="#2EA5B8"/>
<path d="M400 86.6047C408.161 83.7326 428.85 79.7116 446.311 86.6047L454 82V91L446.311 86.6047C436.709 88.8605 414.003 92.0186 400 86.6047Z" fill="#2EA5B8"/>
<path d="M209.777 139.485C232.139 131.492 288.825 120.301 336.67 139.485L357.738 126.67V151.718L336.67 139.485C310.359 145.764 248.146 154.553 209.777 139.485Z" fill="#2EA5B8"/>
<path d="M245.796 91.8155C268.159 83.822 324.845 72.6311 372.689 91.8155L393.757 79V104.049L372.689 91.8155C346.379 98.0939 284.165 106.883 245.796 91.8155Z" fill="#2EA5B8"/>
<path d="M286.767 183.159C300.472 178.264 335.213 171.41 364.535 183.159L377.447 175.311V190.651L364.535 183.159C348.41 187.004 310.282 192.387 286.767 183.159Z" fill="#2EA5B8"/>
<path d="M348.32 120.829C362.025 115.934 396.766 109.08 426.088 120.829L439 112.981V128.32L426.088 120.829C409.963 124.674 371.835 130.057 348.32 120.829Z" fill="#2EA5B8"/>
<path d="M252.98 163.606C263.78 159.764 291.156 154.386 314.262 163.606L324.437 157.447V169.485L314.262 163.606C301.556 166.623 271.51 170.848 252.98 163.606Z" fill="#2EA5B8"/>
<path d="M204.631 154.697C209.62 152.9 222.267 150.384 232.941 154.697L237.641 151.816V157.447L232.941 154.697C227.071 156.108 213.191 158.084 204.631 154.697Z" fill="#2EA5B8"/>
<path d="M212.786 163.434C217.775 161.637 230.422 159.122 241.096 163.434L245.796 160.553V166.184L241.096 163.434C235.226 164.846 221.346 166.822 212.786 163.434Z" fill="#2EA5B8"/>
<path d="M299.194 118.968C304.183 117.171 316.83 114.656 327.504 118.968L332.204 116.087V121.718L327.504 118.968C321.634 120.38 307.754 122.356 299.194 118.968Z" fill="#2EA5B8"/>
<path d="M336.087 160.716C341.076 158.919 353.723 156.403 364.397 160.716L369.097 157.835V163.466L364.397 160.716C358.527 162.127 344.647 164.103 336.087 160.716Z" fill="#2EA5B8"/>
<path d="M179 177.135C192.412 172.364 226.408 165.684 255.103 177.135L267.738 169.485V184.437L255.103 177.135C239.323 180.883 202.011 186.129 179 177.135Z" fill="#2EA5B8"/>
<path d="M226.767 113.121C237.567 109.279 264.943 103.9 288.049 113.121L298.223 106.961V119L288.049 113.121C275.342 116.138 245.297 120.363 226.767 113.121Z" fill="#2EA5B8"/>
<path d="M460.777 60.4854C483.139 52.4919 539.825 41.301 587.67 60.4854L608.738 47.6699V72.7184L587.67 60.4854C561.359 66.7637 499.146 75.5534 460.777 60.4854Z" fill="#2EA5B8"/>
<path d="M496.796 12.8155C519.159 4.82201 575.845 -6.36893 623.689 12.8155L644.757 0V25.0485L623.689 12.8155C597.379 19.0939 535.165 27.8835 496.796 12.8155Z" fill="#2EA5B8"/>
<path d="M503.98 84.606C514.78 80.7642 542.156 75.3856 565.262 84.606L575.437 78.4466V90.4854L565.262 84.606C552.556 87.6235 522.51 91.848 503.98 84.606Z" fill="#2EA5B8"/>
<path d="M455.631 75.6965C460.62 73.8996 473.267 71.3838 483.941 75.6965L488.641 72.8155V78.4466L483.941 75.6965C478.071 77.108 464.191 79.0839 455.631 75.6965Z" fill="#2EA5B8"/>
<path d="M463.786 84.4344C468.775 82.6374 481.422 80.1216 492.096 84.4344L496.796 81.5534V87.1845L492.096 84.4344C486.226 85.8458 472.346 87.8218 463.786 84.4344Z" fill="#2EA5B8"/>
<path d="M411 66.881C415.989 65.084 428.636 62.5682 439.31 66.881L444.01 64V69.6311L439.31 66.881C433.44 68.2924 419.56 70.2684 411 66.881Z" fill="#2EA5B8"/>
<path d="M439 27.881C443.989 26.084 456.636 23.5682 467.31 27.881L472.01 25V30.6311L467.31 27.881C461.44 29.2924 447.56 31.2684 439 27.881Z" fill="#2EA5B8"/>
<path d="M430 98.135C443.412 93.3637 477.408 86.6838 506.103 98.135L518.738 90.4854V105.437L506.103 98.135C490.323 101.883 453.011 107.129 430 98.135Z" fill="#2EA5B8"/>
<path d="M361 56.6496C374.412 51.8783 408.408 45.1984 437.103 56.6496L449.738 49V63.9515L437.103 56.6496C421.323 60.3971 384.011 65.6436 361 56.6496Z" fill="#2EA5B8"/>
<path d="M477.767 34.1206C488.567 30.2787 515.943 24.9001 539.049 34.1206L549.223 27.9612V40L539.049 34.1206C526.342 37.1381 496.297 41.3626 477.767 34.1206Z" fill="#2EA5B8"/>
<path d="M364.777 303.485C387.139 295.492 443.825 284.301 491.67 303.485L512.738 290.67V315.718L491.67 303.485C465.359 309.764 403.146 318.553 364.777 303.485Z" fill="#2EA5B8"/>
<path d="M400.796 255.816C423.159 247.822 479.845 236.631 527.689 255.816L548.757 243V268.049L527.689 255.816C501.379 262.094 439.165 270.883 400.796 255.816Z" fill="#2EA5B8"/>
<path d="M441.767 347.159C455.472 342.264 490.213 335.41 519.535 347.159L532.447 339.311V354.651L519.535 347.159C503.41 351.004 465.282 356.387 441.767 347.159Z" fill="#2EA5B8"/>
<path d="M503.32 284.829C517.025 279.934 551.766 273.08 581.088 284.829L594 276.981V292.32L581.088 284.829C564.963 288.674 526.835 294.057 503.32 284.829Z" fill="#2EA5B8"/>
<path d="M407.98 327.606C418.78 323.764 446.156 318.386 469.262 327.606L479.437 321.447V333.485L469.262 327.606C456.556 330.623 426.51 334.848 407.98 327.606Z" fill="#2EA5B8"/>
<path d="M359.631 318.697C364.62 316.9 377.267 314.384 387.941 318.697L392.641 315.816V321.447L387.941 318.697C382.071 320.108 368.191 322.084 359.631 318.697Z" fill="#2EA5B8"/>
<path d="M367.786 327.434C372.775 325.637 385.422 323.122 396.096 327.434L400.796 324.553V330.184L396.096 327.434C390.226 328.846 376.346 330.822 367.786 327.434Z" fill="#2EA5B8"/>
<path d="M454.194 282.968C459.183 281.171 471.83 278.656 482.504 282.968L487.204 280.087V285.718L482.504 282.968C476.634 284.38 462.754 286.356 454.194 282.968Z" fill="#2EA5B8"/>
<path d="M491.087 324.716C496.076 322.919 508.723 320.403 519.397 324.716L524.097 321.835V327.466L519.397 324.716C513.527 326.127 499.647 328.103 491.087 324.716Z" fill="#2EA5B8"/>
<path d="M329 234.65C342.412 229.878 376.408 223.198 405.103 234.65L417.738 227V241.951L405.103 234.65C389.323 238.397 352.011 243.644 329 234.65Z" fill="#2EA5B8"/>
<path d="M381.767 277.121C392.567 273.279 419.943 267.9 443.049 277.121L453.223 270.961V283L443.049 277.121C430.342 280.138 400.297 284.363 381.767 277.121Z" fill="#2EA5B8"/>
<path d="M154.777 203.485C177.139 195.492 233.825 184.301 281.67 203.485L302.738 190.67V215.718L281.67 203.485C255.359 209.764 193.146 218.553 154.777 203.485Z" fill="#2EA5B8"/>
<path d="M231.767 247.159C245.472 242.264 280.213 235.41 309.535 247.159L322.447 239.311V254.651L309.535 247.159C293.41 251.004 255.282 256.387 231.767 247.159Z" fill="#2EA5B8"/>
<path d="M197.98 227.606C208.78 223.764 236.156 218.386 259.262 227.606L269.437 221.447V233.485L259.262 227.606C246.556 230.624 216.51 234.848 197.98 227.606Z" fill="#2EA5B8"/>
<path d="M149.631 218.697C154.62 216.9 167.267 214.384 177.941 218.697L182.641 215.816V221.447L177.941 218.697C172.071 220.108 158.191 222.084 149.631 218.697Z" fill="#2EA5B8"/>
<path d="M157.786 227.434C162.775 225.637 175.422 223.122 186.096 227.434L190.796 224.553V230.184L186.096 227.434C180.226 228.846 166.346 230.822 157.786 227.434Z" fill="#2EA5B8"/>
<path d="M244.194 182.968C249.183 181.171 261.83 178.656 272.504 182.968L277.204 180.087V185.718L272.504 182.968C266.634 184.38 252.754 186.356 244.194 182.968Z" fill="#2EA5B8"/>
<path d="M281.087 224.716C286.076 222.919 298.723 220.403 309.397 224.716L314.097 221.835V227.466L309.397 224.716C303.527 226.127 289.647 228.103 281.087 224.716Z" fill="#2EA5B8"/>
<path d="M124 241.135C137.412 236.364 171.408 229.684 200.103 241.135L212.738 233.485V248.437L200.103 241.135C184.323 244.883 147.011 250.129 124 241.135Z" fill="#2EA5B8"/>
<path d="M30.7766 112.398C53.1391 104.405 109.825 93.2136 157.67 112.398L178.738 99.5825V124.631L157.67 112.398C131.359 118.676 69.1455 127.466 30.7766 112.398Z" fill="#2EA5B8"/>
<path d="M107.767 156.072C121.472 151.176 156.213 144.323 185.535 156.072L198.447 148.223V163.563L185.535 156.072C169.41 159.916 131.282 165.299 107.767 156.072Z" fill="#2EA5B8"/>
<path d="M73.9805 136.519C84.7802 132.677 112.156 127.298 135.262 136.519L145.437 130.359V142.398L135.262 136.519C122.556 139.536 92.5103 143.761 73.9805 136.519Z" fill="#2EA5B8"/>
<path d="M25.6311 127.609C30.6201 125.812 43.2666 123.296 53.9406 127.609L58.6408 124.728V130.359L53.9406 127.609C48.0708 129.021 34.1911 130.997 25.6311 127.609Z" fill="#2EA5B8"/>
<path d="M33.7864 136.347C38.7754 134.55 51.4219 132.034 62.0959 136.347L66.7961 133.466V139.097L62.0959 136.347C56.226 137.758 42.3464 139.734 33.7864 136.347Z" fill="#2EA5B8"/>
<path d="M120.194 91.881C125.183 90.084 137.83 87.5682 148.504 91.881L153.204 89V94.6311L148.504 91.881C142.634 93.2924 128.754 95.2684 120.194 91.881Z" fill="#2EA5B8"/>
<path d="M157.087 133.629C162.076 131.832 174.723 129.316 185.397 133.629L190.097 130.748V136.379L185.397 133.629C179.527 135.04 165.647 137.016 157.087 133.629Z" fill="#2EA5B8"/>
<path d="M0 150.048C13.4116 145.276 47.4084 138.596 76.1026 150.048L88.7379 142.398V157.349L76.1026 150.048C60.3231 153.795 23.0113 159.042 0 150.048Z" fill="#2EA5B8"/>
</svg>
