<svg width="2500" height="1807" viewBox="0 0 2500 1807" fill="none" xmlns="http://www.w3.org/2000/svg">
<rect width="2496.53" height="1670.71" fill="#1E6C78"/>
<path d="M2050.19 473.126C2041.63 470.386 2022.36 471.984 2013.79 473.126C2042.57 311.419 2005.23 273.562 1982.96 274.846C2036.06 267.309 2049.91 403.893 2050.19 473.126Z" fill="#855E16"/>
<path d="M2093.91 295.772C2076.51 281.647 2031.41 257.106 1990.27 271.944C2010.01 283.679 2058.37 304.874 2093.91 295.772Z" fill="#29A651"/>
<path fill-rule="evenodd" clip-rule="evenodd" d="M1991.86 268.595C2027.51 246.175 2075.33 257.831 2095.25 266.735C2086.51 271.648 2076.26 274.623 2065.53 276.225C2044.79 266.727 2017.66 260.13 1991.86 268.595ZM1990.31 269.598C1989.86 269.895 1989.42 270.198 1988.97 270.506C1990.63 270.973 1992.45 271.449 1994.42 271.923C1992.94 271.119 1991.57 270.341 1990.31 269.598Z" fill="#29A651"/>
<path d="M1961.57 379.743C1975.72 362.356 2000.31 317.291 1985.51 276.131C1973.76 295.857 1952.51 344.195 1961.57 379.743Z" fill="#29A651"/>
<path fill-rule="evenodd" clip-rule="evenodd" d="M1982.27 276.7C1982.67 276.503 1983.06 276.314 1983.45 276.131C1983.29 276.955 1983.1 277.778 1982.9 278.599C1982.7 277.965 1982.49 277.332 1982.27 276.7ZM1981.51 277.078C1960.64 287.566 1921.39 317.049 1917.07 359.212C1929.13 351.2 1949.52 334.558 1964.74 314.335C1969.95 299.064 1976.5 285.652 1981.51 277.078Z" fill="#29A651"/>
<ellipse cx="2033.06" cy="512.46" rx="116.912" ry="41.9685" fill="#D4A040"/>
<rect width="8.0574" height="186.932" transform="matrix(-1 0 0 1 444.373 1098.2)" fill="#855E16"/>
<path d="M598.206 1210.96C611.072 1204.03 637.582 1222.46 649.229 1232.55C598.768 1258.59 494.783 1308.5 482.524 1299.81C470.265 1291.12 480.262 1265.34 486.793 1253.54C518.57 1242.23 585.34 1217.89 598.206 1210.96Z" fill="#E6F9F7"/>
<path d="M608.905 1336.49C613.675 1332.88 675.46 1256.99 705.755 1219.49C700.341 1212.02 576.407 1237.76 515.117 1251.56L496.102 1278.63L365.733 1286.37V1266.06L277.585 1281.37C281.077 1298.94 290.09 1335.04 298.212 1338.9C308.364 1343.74 602.943 1341 608.905 1336.49Z" fill="#855E16"/>
<path d="M428.097 1260.92V1102.99C396.383 1114.6 358.159 1207.63 343.011 1252.7C358.481 1246.12 406.181 1255.44 428.097 1260.92Z" fill="#2B9AAE"/>
<path d="M452.269 1091.78V1246.48C484.628 1254.99 567.06 1215 604.232 1193.95C586.828 1152.43 493.631 1101.98 452.269 1091.78Z" fill="#2B9AAE"/>
<path d="M1609.13 773.344C1942.92 261.953 2342.12 560.264 2500 773.344V1806.07L0 1781.21V1329.74C397.293 1357.36 1275.33 1284.73 1609.13 773.344Z" fill="#144851"/>
<path d="M206.064 626.853C208.045 621.745 215.273 621.745 217.253 626.853L241.589 689.63C242.221 691.261 243.534 692.536 245.185 693.118L310.145 716.064C315.481 717.948 315.481 725.494 310.145 727.378L245.185 750.323C243.534 750.906 242.221 752.181 241.589 753.812L217.253 816.589C215.273 821.697 208.045 821.697 206.064 816.589L181.729 753.812C181.096 752.181 179.783 750.906 178.133 750.323L113.172 727.378C107.836 725.494 107.836 717.948 113.172 716.064L178.133 693.118C179.783 692.536 181.096 691.261 181.729 689.63L206.064 626.853Z" fill="#FAEBD9"/>
<path d="M1505.51 99.4418C1507.49 94.3334 1514.72 94.3334 1516.7 99.4418L1541.03 162.218C1541.67 163.85 1542.98 165.124 1544.63 165.707L1609.59 188.652C1614.93 190.537 1614.93 198.082 1609.59 199.967L1544.63 222.912C1542.98 223.495 1541.67 224.769 1541.03 226.401L1516.7 289.177C1514.72 294.286 1507.49 294.286 1505.51 289.177L1481.17 226.401C1480.54 224.769 1479.23 223.495 1477.58 222.912L1412.62 199.967C1407.28 198.082 1407.28 190.537 1412.62 188.652L1477.58 165.707C1479.23 165.124 1480.54 163.85 1481.17 162.218L1505.51 99.4418Z" fill="#FAEBD9"/>
<path d="M2270.75 196.533C2272 193.289 2276.59 193.289 2277.85 196.533L2293.3 236.391C2293.7 237.427 2294.54 238.236 2295.58 238.606L2336.83 253.174C2340.22 254.371 2340.22 259.162 2336.83 260.358L2295.58 274.926C2294.54 275.296 2293.7 276.106 2293.3 277.142L2277.85 317C2276.59 320.243 2272 320.243 2270.75 317L2255.29 277.142C2254.89 276.106 2254.06 275.296 2253.01 274.926L2211.77 260.358C2208.38 259.162 2208.38 254.371 2211.77 253.174L2253.01 238.606C2254.06 238.236 2254.89 237.427 2255.29 236.391L2270.75 196.533Z" fill="#FAEBD9"/>
<path d="M615.644 85.4987C616.902 82.2552 621.491 82.2552 622.748 85.4987L638.199 125.357C638.601 126.393 639.435 127.202 640.483 127.572L681.728 142.14C685.115 143.337 685.115 148.128 681.728 149.324L640.483 163.892C639.435 164.263 638.601 165.072 638.199 166.108L622.748 205.966C621.491 209.209 616.902 209.209 615.644 205.966L600.193 166.108C599.792 165.072 598.958 164.263 597.91 163.892L556.665 149.324C553.277 148.128 553.277 143.337 556.665 142.14L597.91 127.572C598.958 127.202 599.792 126.393 600.193 125.357L615.644 85.4987Z" fill="#FAEBD9"/>
<path d="M322.488 770.918C323.526 768.242 327.312 768.242 328.349 770.918L341.096 803.801C341.428 804.656 342.116 805.323 342.98 805.629L377.007 817.647C379.802 818.635 379.802 822.587 377.007 823.574L342.98 835.593C342.116 835.898 341.428 836.566 341.096 837.42L328.349 870.303C327.312 872.979 323.526 872.979 322.488 870.303L309.741 837.42C309.41 836.566 308.722 835.898 307.858 835.593L273.831 823.574C271.036 822.587 271.036 818.635 273.831 817.647L307.858 805.629C308.722 805.323 309.41 804.656 309.741 803.801L322.488 770.918Z" fill="#FAEBD9"/>
</svg>
