<svg width="2500" height="1731" viewBox="0 0 2500 1731" fill="none" xmlns="http://www.w3.org/2000/svg">
<path d="M2050.19 397.126C2041.63 394.386 2022.36 395.984 2013.79 397.126C2042.57 235.419 2005.23 197.562 1982.96 198.846C2036.06 191.309 2049.91 327.893 2050.19 397.126Z" fill="#855E16"/>
<path d="M2093.91 219.772C2076.51 205.647 2031.41 181.106 1990.27 195.944C2010.01 207.679 2058.37 228.874 2093.91 219.772Z" fill="#29A651"/>
<path fill-rule="evenodd" clip-rule="evenodd" d="M1991.86 192.595C2027.51 170.175 2075.33 181.831 2095.25 190.735C2086.51 195.648 2076.26 198.623 2065.53 200.225C2044.79 190.727 2017.66 184.13 1991.86 192.595ZM1990.31 193.598C1989.86 193.895 1989.42 194.198 1988.97 194.506C1990.63 194.973 1992.45 195.449 1994.42 195.923C1992.94 195.119 1991.57 194.341 1990.31 193.598Z" fill="#29A651"/>
<path d="M1961.57 303.743C1975.72 286.356 2000.31 241.291 1985.51 200.131C1973.76 219.857 1952.51 268.195 1961.57 303.743Z" fill="#29A651"/>
<path fill-rule="evenodd" clip-rule="evenodd" d="M1982.27 200.7C1982.67 200.503 1983.06 200.314 1983.45 200.131C1983.29 200.955 1983.1 201.778 1982.9 202.599C1982.7 201.965 1982.49 201.332 1982.27 200.7ZM1981.51 201.078C1960.64 211.566 1921.39 241.049 1917.07 283.212C1929.13 275.2 1949.52 258.558 1964.74 238.335C1969.95 223.064 1976.5 209.652 1981.51 201.078Z" fill="#29A651"/>
<ellipse cx="2033.06" cy="436.46" rx="116.912" ry="41.9685" fill="#D4A040"/>
<rect width="8.0574" height="186.932" transform="matrix(-1 0 0 1 444.373 1022.2)" fill="#855E16"/>
<path d="M598.206 1134.96C611.072 1128.03 637.582 1146.47 649.229 1156.55C598.768 1182.59 494.783 1232.5 482.524 1223.81C470.265 1215.12 480.262 1189.34 486.793 1177.54C518.57 1166.23 585.34 1141.89 598.206 1134.96Z" fill="#E6F9F7"/>
<path d="M608.905 1260.49C613.675 1256.88 675.46 1180.99 705.755 1143.49C700.341 1136.02 576.407 1161.76 515.117 1175.56L496.102 1202.63L365.733 1210.37V1190.06L277.585 1205.37C281.077 1222.94 290.09 1259.04 298.212 1262.9C308.364 1267.74 602.943 1265 608.905 1260.49Z" fill="#855E16"/>
<path d="M428.097 1184.92V1026.99C396.383 1038.6 358.159 1131.63 343.011 1176.7C358.481 1170.12 406.181 1179.44 428.097 1184.92Z" fill="#2B9AAE"/>
<path d="M452.269 1015.78V1170.48C484.628 1178.99 567.06 1139 604.232 1117.95C586.828 1076.43 493.631 1025.98 452.269 1015.78Z" fill="#2B9AAE"/>
<path d="M1609.13 697.344C1942.92 185.953 2342.12 484.264 2500 697.344V1730.07L0 1705.21V1253.74C397.293 1281.36 1275.33 1208.73 1609.13 697.344Z" fill="#144851"/>
<path d="M206.064 550.853C208.045 545.745 215.273 545.745 217.253 550.853L241.589 613.63C242.221 615.261 243.534 616.536 245.185 617.118L310.145 640.064C315.481 641.948 315.481 649.494 310.145 651.378L245.185 674.323C243.534 674.906 242.221 676.181 241.589 677.812L217.253 740.589C215.273 745.697 208.045 745.697 206.064 740.589L181.729 677.812C181.096 676.181 179.783 674.906 178.133 674.323L113.172 651.378C107.836 649.494 107.836 641.948 113.172 640.064L178.133 617.118C179.783 616.536 181.096 615.261 181.729 613.63L206.064 550.853Z" fill="#FAEBD9"/>
<path d="M1505.51 23.4418C1507.49 18.3334 1514.72 18.3334 1516.7 23.4418L1541.03 86.2183C1541.67 87.8501 1542.98 89.1243 1544.63 89.7071L1609.59 112.652C1614.93 114.537 1614.93 122.082 1609.59 123.967L1544.63 146.912C1542.98 147.495 1541.67 148.769 1541.03 150.401L1516.7 213.177C1514.72 218.286 1507.49 218.286 1505.51 213.177L1481.17 150.401C1480.54 148.769 1479.23 147.495 1477.58 146.912L1412.62 123.967C1407.28 122.082 1407.28 114.537 1412.62 112.652L1477.58 89.7071C1479.23 89.1243 1480.54 87.8501 1481.17 86.2183L1505.51 23.4418Z" fill="#FAEBD9"/>
<path d="M2270.75 120.533C2272 117.289 2276.59 117.289 2277.85 120.533L2293.3 160.391C2293.7 161.427 2294.54 162.236 2295.58 162.606L2336.83 177.174C2340.22 178.371 2340.22 183.162 2336.83 184.358L2295.58 198.926C2294.54 199.296 2293.7 200.106 2293.3 201.142L2277.85 241C2276.59 244.243 2272 244.243 2270.75 241L2255.29 201.142C2254.89 200.106 2254.06 199.296 2253.01 198.926L2211.77 184.358C2208.38 183.162 2208.38 178.371 2211.77 177.174L2253.01 162.606C2254.06 162.236 2254.89 161.427 2255.29 160.391L2270.75 120.533Z" fill="#FAEBD9"/>
<path d="M615.644 9.49867C616.902 6.25522 621.491 6.25523 622.748 9.49868L638.199 49.3568C638.601 50.3928 639.435 51.2018 640.483 51.5719L681.728 66.1402C685.115 67.3367 685.115 72.1276 681.728 73.3242L640.483 87.8925C639.435 88.2625 638.601 89.0716 638.199 90.1076L622.748 129.966C621.491 133.209 616.902 133.209 615.644 129.966L600.193 90.1076C599.792 89.0716 598.958 88.2625 597.91 87.8925L556.665 73.3242C553.277 72.1276 553.277 67.3367 556.665 66.1402L597.91 51.5719C598.958 51.2018 599.792 50.3928 600.193 49.3568L615.644 9.49867Z" fill="#FAEBD9"/>
<path d="M322.488 694.918C323.526 692.242 327.312 692.242 328.349 694.918L341.096 727.801C341.428 728.656 342.116 729.323 342.98 729.629L377.007 741.647C379.802 742.635 379.802 746.587 377.007 747.574L342.98 759.593C342.116 759.898 341.428 760.566 341.096 761.421L328.349 794.303C327.312 796.979 323.526 796.979 322.488 794.303L309.741 761.421C309.41 760.566 308.722 759.898 307.858 759.593L273.831 747.574C271.036 746.587 271.036 742.635 273.831 741.647L307.858 729.629C308.722 729.323 309.41 728.656 309.741 727.801L322.488 694.918Z" fill="#FAEBD9"/>
<rect y="1541" width="2498" height="189" fill="#144851"/>
</svg>
