<svg width="2500" height="1683" viewBox="0 0 2500 1683" fill="none" xmlns="http://www.w3.org/2000/svg">
<path d="M2050.19 349.948C2041.63 347.207 2022.36 348.806 2013.79 349.948C2042.57 188.241 2005.23 150.383 1982.96 151.668C2036.06 144.131 2049.91 280.714 2050.19 349.948Z" fill="#855E16"/>
<path d="M2093.91 172.594C2076.51 158.469 2031.41 133.928 1990.27 148.765C2010.01 160.501 2058.37 181.696 2093.91 172.594Z" fill="#29A651"/>
<path fill-rule="evenodd" clip-rule="evenodd" d="M1991.86 145.417C2027.51 122.997 2075.33 134.653 2095.25 143.557C2086.51 148.47 2076.26 151.445 2065.53 153.048C2044.79 143.549 2017.66 136.952 1991.86 145.417ZM1990.31 146.421C1989.86 146.718 1989.42 147.02 1988.97 147.329C1990.63 147.795 1992.45 148.271 1994.42 148.745C1992.94 147.941 1991.57 147.163 1990.31 146.421Z" fill="#29A651"/>
<path d="M1961.57 256.565C1975.72 239.177 2000.31 194.113 1985.51 152.953C1973.76 172.678 1952.51 221.016 1961.57 256.565Z" fill="#29A651"/>
<path fill-rule="evenodd" clip-rule="evenodd" d="M1982.27 153.522C1982.67 153.325 1983.06 153.135 1983.45 152.953C1983.29 153.777 1983.1 154.599 1982.91 155.421C1982.7 154.787 1982.49 154.154 1982.27 153.522ZM1981.51 153.9C1960.64 164.388 1921.39 193.871 1917.07 236.034C1929.13 228.022 1949.52 211.38 1964.74 191.157C1969.95 175.886 1976.5 162.474 1981.51 153.9Z" fill="#29A651"/>
<ellipse cx="2033.06" cy="389.282" rx="116.912" ry="41.9685" fill="#D4A040"/>
<rect width="8.0574" height="186.932" transform="matrix(-1 0 0 1 444.373 975.018)" fill="#855E16"/>
<path d="M598.206 1087.78C611.072 1080.85 637.582 1099.29 649.229 1109.37C598.769 1135.42 494.783 1185.33 482.525 1176.63C470.266 1167.94 480.263 1142.16 486.794 1130.36C518.57 1119.06 585.34 1094.72 598.206 1087.78Z" fill="#E6F9F7"/>
<path d="M608.905 1213.31C613.675 1209.7 675.46 1133.81 705.755 1096.31C700.341 1088.84 576.407 1114.58 515.117 1128.38L496.102 1155.46L365.733 1163.19V1142.89L277.585 1158.19C281.077 1175.76 290.09 1211.86 298.212 1215.72C308.364 1220.56 602.943 1217.82 608.905 1213.31Z" fill="#855E16"/>
<path d="M428.098 1137.74V979.814C396.384 991.417 358.159 1084.45 343.011 1129.52C358.482 1122.95 406.181 1132.26 428.098 1137.74Z" fill="#2B9AAE"/>
<path d="M452.269 968.599V1123.3C484.628 1131.81 567.061 1091.82 604.232 1070.77C586.828 1029.26 493.631 978.805 452.269 968.599Z" fill="#2B9AAE"/>
<path d="M1609.13 650.166C1942.92 138.775 2342.12 437.086 2500 650.166V1682.89L0 1658.04V1206.57C397.293 1234.18 1275.33 1161.56 1609.13 650.166Z" fill="#2B9AAD"/>
<path fill-rule="evenodd" clip-rule="evenodd" d="M1458.4 85.0105C1458.83 82.1794 1459.06 79.2829 1459.06 76.3359C1459.06 43.7584 1431.87 17.3491 1398.33 17.3491C1364.8 17.3491 1337.61 43.7584 1337.61 76.3359C1337.61 79.2829 1337.84 82.1794 1338.26 85.0105H1458.4Z" fill="#E6F9F7"/>
<path fill-rule="evenodd" clip-rule="evenodd" d="M1269.95 85.0104L1172.8 85.0104C1172.8 59.14 1194.55 38.168 1221.37 38.168C1248.2 38.168 1269.95 59.1401 1269.95 85.0104Z" fill="#E6F9F7"/>
<path fill-rule="evenodd" clip-rule="evenodd" d="M1364.23 85.0104C1366.1 78.9694 1367.11 72.5624 1367.11 65.9264C1367.11 29.5163 1336.81 0 1299.44 0C1262.08 0 1231.78 29.5163 1231.78 65.9264C1231.78 72.5624 1232.79 78.9694 1234.66 85.0104H1364.23Z" fill="#E6F9F7"/>
<path fill-rule="evenodd" clip-rule="evenodd" d="M812.708 170.021C813.377 165.611 813.724 161.1 813.724 156.51C813.724 105.768 771.379 64.6333 719.145 64.6333C666.91 64.6333 624.566 105.768 624.566 156.51C624.566 161.1 624.913 165.611 625.582 170.021H812.708Z" fill="#E6F9F7"/>
<path fill-rule="evenodd" clip-rule="evenodd" d="M404.622 170.021C404.622 129.726 370.747 97.0605 328.959 97.0605C287.172 97.0605 253.296 129.726 253.296 170.021H404.622Z" fill="#E6F9F7"/>
<path fill-rule="evenodd" clip-rule="evenodd" d="M683.942 170.021C683.942 129.726 650.067 97.0605 608.279 97.0605C566.492 97.0605 532.616 129.726 532.616 170.021H683.942Z" fill="#E6F9F7"/>
<path fill-rule="evenodd" clip-rule="evenodd" d="M551.465 170.021C554.381 160.612 555.948 150.632 555.948 140.296C555.948 83.5847 508.764 37.6108 450.56 37.6108C392.356 37.6108 345.173 83.5847 345.173 140.296C345.173 150.632 346.74 160.612 349.656 170.021H551.465Z" fill="#E6F9F7"/>
<path fill-rule="evenodd" clip-rule="evenodd" d="M2461.1 250.449C2461.58 247.251 2461.83 243.978 2461.83 240.649C2461.83 203.844 2431.12 174.007 2393.23 174.007C2355.34 174.007 2324.63 203.844 2324.63 240.649C2324.63 243.978 2324.88 247.251 2325.37 250.449H2461.1Z" fill="#E6F9F7"/>
<path fill-rule="evenodd" clip-rule="evenodd" d="M2354.7 250.449C2356.81 243.624 2357.95 236.386 2357.95 228.889C2357.95 187.753 2323.73 154.407 2281.51 154.407C2239.29 154.407 2205.07 187.753 2205.07 228.889C2205.07 236.386 2206.2 243.624 2208.32 250.449H2354.7Z" fill="#E6F9F7"/>
<path fill-rule="evenodd" clip-rule="evenodd" d="M30.7574 697.432C29.9247 691.943 29.4934 686.328 29.4934 680.614C29.4934 617.454 82.201 566.252 147.219 566.252C212.237 566.252 264.945 617.454 264.945 680.614C264.945 686.328 264.514 691.943 263.681 697.432H30.7574Z" fill="#E6F9F7"/>
<path fill-rule="evenodd" clip-rule="evenodd" d="M396.125 697.432H584.486C584.486 647.275 542.32 606.615 490.306 606.615C438.291 606.615 396.125 647.275 396.125 697.432Z" fill="#E6F9F7"/>
<path fill-rule="evenodd" clip-rule="evenodd" d="M213.344 697.432C209.715 685.72 207.764 673.298 207.764 660.433C207.764 589.842 266.495 532.616 338.944 532.616C411.393 532.616 470.124 589.842 470.124 660.433C470.124 673.298 468.173 685.72 464.544 697.432H213.344Z" fill="#E6F9F7"/>
<rect y="1494" width="2498" height="189" fill="#2B9AAD"/>
</svg>
