<svg width="2500" height="1810" viewBox="0 0 2500 1810" fill="none" xmlns="http://www.w3.org/2000/svg">
<rect x="1.73486" width="2496.53" height="1670.71" fill="#FAEBD9"/>
<path d="M2050.19 476.596C2041.63 473.855 2022.36 475.454 2013.79 476.596C2042.57 314.889 2005.23 277.031 1982.96 278.316C2036.06 270.779 2049.91 407.362 2050.19 476.596Z" fill="#855E16"/>
<path d="M2093.91 299.242C2076.51 285.117 2031.41 260.576 1990.27 275.413C2010.01 287.149 2058.37 308.344 2093.91 299.242Z" fill="#29A651"/>
<path fill-rule="evenodd" clip-rule="evenodd" d="M1991.86 272.065C2027.51 249.645 2075.33 261.301 2095.25 270.205C2086.51 275.118 2076.26 278.093 2065.53 279.695C2044.79 270.197 2017.66 263.6 1991.86 272.065ZM1990.31 273.068C1989.86 273.366 1989.42 273.668 1988.97 273.977C1990.63 274.443 1992.45 274.919 1994.42 275.393C1992.94 274.589 1991.57 273.811 1990.31 273.068Z" fill="#29A651"/>
<path d="M1961.57 383.213C1975.72 365.825 2000.31 320.761 1985.51 279.601C1973.76 299.326 1952.51 347.664 1961.57 383.213Z" fill="#29A651"/>
<path fill-rule="evenodd" clip-rule="evenodd" d="M1982.27 280.17C1982.67 279.973 1983.06 279.783 1983.45 279.601C1983.29 280.425 1983.1 281.247 1982.91 282.069C1982.7 281.435 1982.49 280.802 1982.27 280.17ZM1981.51 280.548C1960.64 291.036 1921.39 320.518 1917.07 362.682C1929.13 354.669 1949.52 338.028 1964.74 317.805C1969.95 302.534 1976.5 289.121 1981.51 280.548Z" fill="#29A651"/>
<ellipse cx="2033.06" cy="515.93" rx="116.912" ry="41.9685" fill="#D4A040"/>
<rect width="8.0574" height="186.932" transform="matrix(-1 0 0 1 444.373 1101.67)" fill="#855E16"/>
<path d="M598.206 1214.43C611.072 1207.5 637.582 1225.93 649.229 1236.02C598.769 1262.06 494.784 1311.97 482.525 1303.28C470.266 1294.59 480.263 1268.81 486.794 1257.01C518.571 1245.7 585.341 1221.36 598.206 1214.43Z" fill="#E6F9F7"/>
<path d="M608.905 1339.96C613.675 1336.35 675.46 1260.46 705.755 1222.96C700.341 1215.48 576.407 1241.23 515.117 1255.03L496.102 1282.1L365.733 1289.84V1269.53L277.585 1284.84C281.077 1302.41 290.09 1338.51 298.212 1342.37C308.364 1347.21 602.943 1344.47 608.905 1339.96Z" fill="#855E16"/>
<path d="M428.098 1264.39V1106.46C396.384 1118.06 358.159 1211.1 343.012 1256.17C358.482 1249.59 406.182 1258.91 428.098 1264.39Z" fill="#2B9AAE"/>
<path d="M452.269 1095.25V1249.95C484.628 1258.46 567.06 1218.47 604.232 1197.42C586.828 1155.9 493.631 1105.45 452.269 1095.25Z" fill="#2B9AAE"/>
<path d="M1609.13 776.814C1942.92 265.423 2342.12 563.734 2500 776.814V1809.54L0 1784.68V1333.21C397.293 1360.83 1275.33 1288.2 1609.13 776.814Z" fill="#2B9AAD"/>
<path fill-rule="evenodd" clip-rule="evenodd" d="M1458.4 211.659C1458.83 208.827 1459.06 205.931 1459.06 202.984C1459.06 170.406 1431.87 143.997 1398.33 143.997C1364.8 143.997 1337.61 170.406 1337.61 202.984C1337.61 205.931 1337.84 208.827 1338.26 211.659H1458.4Z" fill="#E6F9F7"/>
<path fill-rule="evenodd" clip-rule="evenodd" d="M1269.95 211.659L1172.8 211.659C1172.8 185.788 1194.55 164.816 1221.37 164.816C1248.2 164.816 1269.95 185.788 1269.95 211.659Z" fill="#E6F9F7"/>
<path fill-rule="evenodd" clip-rule="evenodd" d="M1364.23 211.659C1366.1 205.618 1367.11 199.211 1367.11 192.575C1367.11 156.164 1336.81 126.648 1299.44 126.648C1262.08 126.648 1231.78 156.164 1231.78 192.575C1231.78 199.211 1232.79 205.618 1234.66 211.659H1364.23Z" fill="#E6F9F7"/>
<path fill-rule="evenodd" clip-rule="evenodd" d="M812.708 296.669C813.377 292.26 813.724 287.748 813.724 283.158C813.724 232.416 771.379 191.281 719.145 191.281C666.91 191.281 624.566 232.416 624.566 283.158C624.566 287.748 624.913 292.26 625.582 296.669H812.708Z" fill="#E6F9F7"/>
<path fill-rule="evenodd" clip-rule="evenodd" d="M404.622 296.669C404.622 256.374 370.747 223.708 328.959 223.708C287.172 223.708 253.296 256.374 253.296 296.669H404.622Z" fill="#E6F9F7"/>
<path fill-rule="evenodd" clip-rule="evenodd" d="M683.942 296.669C683.942 256.374 650.067 223.708 608.279 223.708C566.492 223.708 532.616 256.374 532.616 296.669H683.942Z" fill="#E6F9F7"/>
<path fill-rule="evenodd" clip-rule="evenodd" d="M551.465 296.669C554.381 287.26 555.948 277.28 555.948 266.944C555.948 210.233 508.764 164.259 450.56 164.259C392.356 164.259 345.173 210.233 345.173 266.944C345.173 277.28 346.74 287.26 349.656 296.669H551.465Z" fill="#E6F9F7"/>
<path fill-rule="evenodd" clip-rule="evenodd" d="M2461.1 377.097C2461.58 373.899 2461.83 370.626 2461.83 367.297C2461.83 330.492 2431.12 300.655 2393.23 300.655C2355.34 300.655 2324.63 330.492 2324.63 367.297C2324.63 370.626 2324.88 373.899 2325.37 377.097H2461.1Z" fill="#E6F9F7"/>
<path fill-rule="evenodd" clip-rule="evenodd" d="M2354.7 377.097C2356.81 370.272 2357.95 363.034 2357.95 355.537C2357.95 314.401 2323.73 281.055 2281.51 281.055C2239.29 281.055 2205.07 314.401 2205.07 355.537C2205.07 363.034 2206.2 370.272 2208.32 377.097H2354.7Z" fill="#E6F9F7"/>
<path fill-rule="evenodd" clip-rule="evenodd" d="M30.7576 824.081C29.9248 818.592 29.4935 812.976 29.4935 807.263C29.4935 744.102 82.2011 692.9 147.219 692.9C212.237 692.9 264.945 744.102 264.945 807.263C264.945 812.976 264.514 818.592 263.681 824.081H30.7576Z" fill="#E6F9F7"/>
<path fill-rule="evenodd" clip-rule="evenodd" d="M396.125 824.08H584.486C584.486 773.924 542.32 733.263 490.306 733.263C438.291 733.263 396.125 773.924 396.125 824.08Z" fill="#E6F9F7"/>
<path fill-rule="evenodd" clip-rule="evenodd" d="M213.344 824.081C209.715 812.368 207.764 799.947 207.764 787.081C207.764 716.49 266.495 659.264 338.944 659.264C411.393 659.264 470.124 716.49 470.124 787.081C470.124 799.947 468.173 812.368 464.544 824.081H213.344Z" fill="#E6F9F7"/>
</svg>
